<?xml version="1.0" standalone="no"?><!DOCTYPE svg PUBLIC "-//W3C//DTD SVG 1.1//EN" "http://www.w3.org/Graphics/SVG/1.1/DTD/svg11.dtd"><svg height="1600" node-id="1" sillyvg="true" template-height="1600" template-width="1600" version="1.1" viewBox="0 0 1600 1600" width="1600" xmlns="http://www.w3.org/2000/svg" xmlns:xlink="http://www.w3.org/1999/xlink"><defs node-id="121"><linearGradient gradientUnits="objectBoundingBox" id="paint0_linear_54_382" node-id="85" spreadMethod="pad" x1="128.528" x2="1115.57" y1="971.072" y2="929.382"><stop offset="0" stop-color="#d90a1d"></stop><stop offset="0.491076" stop-color="#fc5143"></stop><stop offset="1" stop-color="#f7132b"></stop></linearGradient><linearGradient gradientUnits="objectBoundingBox" id="paint1_linear_54_382" node-id="89" spreadMethod="pad" x1="6.00745" x2="993.045" y1="699.738" y2="658.048"><stop offset="0" stop-color="#d90a1d"></stop><stop offset="0.491076" stop-color="#fc5143"></stop><stop offset="1" stop-color="#f7132b"></stop></linearGradient><linearGradient gradientUnits="objectBoundingBox" id="paint2_linear_54_382" node-id="93" spreadMethod="pad" x1="53.3121" x2="1040.35" y1="377.967" y2="336.277"><stop offset="0" stop-color="#d90a1d"></stop><stop offset="0.491076" stop-color="#fc5143"></stop><stop offset="1" stop-color="#f7132b"></stop></linearGradient><linearGradient gradientUnits="objectBoundingBox" id="paint3_linear_54_382" node-id="97" spreadMethod="pad" x1="1070.43" x2="1006.75" y1="474.103" y2="691.174"><stop offset="0" stop-color="#ffefb0"></stop><stop offset="1" stop-color="#fdcd68"></stop></linearGradient><linearGradient gradientUnits="objectBoundingBox" id="paint4_linear_54_382" node-id="100" spreadMethod="pad" x1="1194.9" x2="1171.18" y1="425.603" y2="913.458"><stop offset="0" stop-color="#fff2b6"></stop><stop offset="1" stop-color="#fcc456"></stop></linearGradient><linearGradient gradientUnits="objectBoundingBox" id="paint5_linear_54_382" node-id="103" spreadMethod="pad" x1="1351.16" x2="1268.72" y1="549.659" y2="845.991"><stop offset="0" stop-color="#fee8a0"></stop><stop offset="1" stop-color="#f0aa1f"></stop></linearGradient><linearGradient gradientUnits="objectBoundingBox" id="paint6_linear_54_382" node-id="106" spreadMethod="pad" x1="1095.75" x2="1055.26" y1="311.761" y2="296.018"><stop offset="0" stop-color="#fdcec3"></stop><stop offset="1" stop-color="#ffe2db"></stop></linearGradient><linearGradient gradientUnits="objectBoundingBox" id="paint7_linear_54_382" node-id="109" spreadMethod="pad" x1="1164.28" x2="1124.55" y1="290.412" y2="342.054"><stop offset="0" stop-color="#fed7ce" stop-opacity="0"></stop><stop offset="1" stop-color="#ffccc0"></stop></linearGradient><linearGradient gradientUnits="objectBoundingBox" id="paint8_linear_54_382" node-id="112" spreadMethod="pad" x1="1103.31" x2="1136.17" y1="289.532" y2="404.154"><stop offset="0" stop-color="#ffffff"></stop><stop offset="1" stop-color="#ffffff" stop-opacity="0"></stop></linearGradient><linearGradient gradientUnits="objectBoundingBox" id="paint9_linear_54_382" node-id="115" spreadMethod="pad" x1="1313.38" x2="1064.51" y1="658.763" y2="835.45"><stop offset="0" stop-color="#ffc4b7"></stop><stop offset="1" stop-color="#ffcfc3"></stop></linearGradient><filter filterUnits="objectBoundingBox" height="58.28961" id="filter0_f_54_382" node-id="77" width="58.28955" x="1171.92" y="300.933"><feFlood color-interpolation-filters="sRGB" flood-color="#000000" flood-opacity="0" result="BackgroundImageFix"></feFlood><feBlend color-interpolation-filters="sRGB" in="SourceGraphic" in2="BackgroundImageFix" mode="normal" result="shape"></feBlend><feGaussianBlur color-interpolation-filters="sRGB" in="shape" result="effect1_foregroundBlur_54_382" stdDeviation="6 6"></feGaussianBlur></filter><filter filterUnits="objectBoundingBox" height="60.557312" id="filter1_f_54_382" node-id="81" width="53.61621" x="1076.43" y="283.449"><feFlood color-interpolation-filters="sRGB" flood-color="#000000" flood-opacity="0" result="BackgroundImageFix"></feFlood><feBlend color-interpolation-filters="sRGB" in="SourceGraphic" in2="BackgroundImageFix" mode="normal" result="shape"></feBlend><feGaussianBlur color-interpolation-filters="sRGB" in="shape" result="effect1_foregroundBlur_54_382" stdDeviation="6 6"></feGaussianBlur></filter><clipPath id="clip0_54_382" node-id="118"><path d="M 0.00 0.00 L 1600.00 0.00 L 1600.00 1600.00 L 0.00 1600.00 Z" fill="#000000" fill-rule="nonzero" node-id="206" stroke="none" target-height="1600" target-width="1600" target-x="0" target-y="0"></path></clipPath><mask height="1600" id="mask0_54_382" maskUnits="userSpaceOnUse" node-id="4" width="1600" x="0" y="0"><path d="M 0.00 0.00 L 1600.00 0.00 L 1600.00 1600.00 L 0.00 1600.00 Z" fill="#ffffff" fill-rule="nonzero" node-id="210" stroke="none" target-height="1600" target-width="1600" target-x="0" target-y="0"></path></mask></defs><g clip-path="url(#clip0_54_382)" id="sillyvg_g_0" node-id="214"><path d="M 0.00 0.00 L 1600.00 0.00 L 1600.00 1600.00 L 0.00 1600.00 Z" fill="#362828" fill-opacity="0" fill-rule="nonzero" node-id="216" stroke="none" target-height="1600" target-width="1600" target-x="0" target-y="0"></path><path d="M 371.30 1135.50 L 132.70 873.30 L 135.00 882.30 L 136.10 889.10 L 138.70 912.90 L 140.60 942.50 L 142.40 993.30 L 142.80 1045.70 L 142.40 1078.10 L 140.90 1118.10 L 140.20 1127.40 L 139.30 1135.50 L 138.40 1140.20 L 383.10 1403.80 L 387.70 1403.40 L 394.70 1402.10 L 404.80 1399.80 L 420.50 1395.40 L 441.50 1389.10 L 464.00 1381.80 L 519.20 1362.90 L 619.10 1326.70 L 693.20 1299.00 L 850.10 1238.90 L 1003.30 1178.90 L 1134.50 1126.70 L 1155.50 853.10 L 371.30 1135.50 Z" fill="url(#paint0_linear_54_382)" fill-rule="nonzero" group-id="1" node-id="220" stroke="none" target-height="550.7001" target-width="1022.8" target-x="132.7" target-y="853.1"></path><path d="M 866.40 662.80 L 134.30 875.00 L 371.30 1135.80 L 1156.60 854.80 L 866.40 662.80 Z" fill="#9f0b1b" fill-rule="nonzero" group-id="1" node-id="222" stroke="none" target-height="473.00006" target-width="1022.3" target-x="134.3" target-y="662.8"></path><path d="M 391.40 1355.50 L 356.40 1331.50 L 391.60 1369.70 L 489.40 1331.10 L 391.40 1355.50 Z" fill="#9f0b1b" fill-rule="nonzero" group-id="1" node-id="224" stroke="none" target-height="38.599976" target-width="133" target-x="356.4" target-y="1331.1"></path><path d="M 544.40 1312.50 L 642.30 1277.60 L 712.90 1252.80 L 769.90 1233.40 L 788.60 1227.40 L 798.30 1224.80 L 704.10 1259.30 L 634.90 1283.80 L 576.90 1303.40 L 556.60 1309.60 L 544.40 1312.50 Z" fill="#9f0b1b" fill-rule="nonzero" group-id="1" node-id="226" stroke="none" target-height="87.69995" target-width="253.89996" target-x="544.4" target-y="1224.8"></path><path d="M 1052.80 912.10 L 1154.30 868.50 L 1153.50 881.60 L 1052.80 912.10 Z" fill="#9f0b1b" fill-rule="nonzero" group-id="1" node-id="228" stroke="none" target-height="43.599976" target-width="101.5" target-x="1052.8" target-y="868.5"></path><path d="M 1103.10 937.40 L 946.50 995.80 L 895.00 1015.30 L 871.60 1024.60 L 964.30 990.70 L 1029.80 966.40 L 1081.00 946.80 L 1096.60 940.50 L 1103.10 937.40 Z" fill="#9f0b1b" fill-rule="nonzero" group-id="1" node-id="230" stroke="none" target-height="87.19995" target-width="231.5" target-x="871.6" target-y="937.4"></path><path d="M 295.90 903.50 L 247.70 845.30 L 248.50 856.20 L 295.90 903.50 Z" fill="#9f0b1b" fill-rule="nonzero" group-id="1" node-id="232" stroke="none" target-height="58.200012" target-width="48.199997" target-x="247.7" target-y="845.3"></path><path d="M 311.30 933.30 L 390.30 1022.40 L 414.20 1048.80 L 421.00 1055.90 L 378.90 1011.30 L 342.50 971.50 L 321.20 947.00 L 316.60 941.20 L 312.90 936.00 L 311.30 933.30 Z" fill="#9f0b1b" fill-rule="nonzero" group-id="1" node-id="234" stroke="none" target-height="122.60004" target-width="109.70001" target-x="311.3" target-y="933.3"></path><path d="M 248.70 864.20 L 10.20 602.00 L 12.40 611.00 L 13.60 617.80 L 16.20 641.50 L 18.10 671.10 L 19.80 721.90 L 20.20 774.40 L 19.80 806.70 L 18.30 846.70 L 17.60 856.00 L 16.70 864.20 L 15.90 868.80 L 260.60 1132.50 L 265.20 1132.00 L 272.10 1130.80 L 282.20 1128.40 L 298.00 1124.10 L 318.90 1117.70 L 341.50 1110.40 L 396.70 1091.50 L 496.60 1055.40 L 570.70 1027.70 L 727.60 967.60 L 880.80 907.60 L 1012.00 855.30 L 1033.00 581.80 L 248.70 864.20 Z" fill="url(#paint1_linear_54_382)" fill-rule="nonzero" group-id="1" node-id="236" stroke="none" target-height="550.7" target-width="1022.8" target-x="10.2" target-y="581.8"></path><path d="M 743.90 391.50 L 11.80 603.70 L 248.80 864.40 L 1034.10 583.50 L 743.90 391.50 Z" fill="#9f0b1b" fill-rule="nonzero" group-id="1" node-id="238" stroke="none" target-height="472.90002" target-width="1022.3" target-x="11.8" target-y="391.5"></path><path d="M 268.80 1084.10 L 233.90 1060.20 L 269.10 1098.40 L 366.90 1059.80 L 268.80 1084.10 Z" fill="#9f0b1b" fill-rule="nonzero" group-id="1" node-id="240" stroke="none" target-height="38.599976" target-width="133" target-x="233.9" target-y="1059.8"></path><path d="M 421.80 1041.10 L 519.80 1006.20 L 590.30 981.50 L 647.40 962.10 L 666.10 956.10 L 675.80 953.50 L 581.60 987.90 L 512.30 1012.50 L 454.40 1032.10 L 434.10 1038.20 L 421.80 1041.10 Z" fill="#9f0b1b" fill-rule="nonzero" group-id="1" node-id="242" stroke="none" target-height="87.599976" target-width="254" target-x="421.8" target-y="953.5"></path><path d="M 930.20 640.70 L 1031.80 597.10 L 1030.90 610.30 L 930.20 640.70 Z" fill="#9f0b1b" fill-rule="nonzero" group-id="1" node-id="244" stroke="none" target-height="43.600037" target-width="101.60004" target-x="930.2" target-y="597.1"></path><path d="M 980.60 666.00 L 824.00 724.50 L 772.50 744.00 L 749.00 753.30 L 841.80 719.40 L 907.30 695.00 L 958.50 675.50 L 974.10 669.20 L 980.60 666.00 Z" fill="#9f0b1b" fill-rule="nonzero" group-id="1" node-id="246" stroke="none" target-height="87.29999" target-width="231.59998" target-x="749" target-y="666"></path><path d="M 64.10 696.70 L 15.90 638.50 L 16.60 649.50 L 64.10 696.70 Z" fill="#9f0b1b" fill-rule="nonzero" group-id="1" node-id="248" stroke="none" target-height="58.200012" target-width="48.199997" target-x="15.9" target-y="638.5"></path><path d="M 79.50 726.50 L 158.50 815.60 L 182.40 842.10 L 189.20 849.20 L 147.00 804.60 L 110.60 764.80 L 89.40 740.20 L 84.80 734.50 L 81.00 729.30 L 79.50 726.50 Z" fill="#9f0b1b" fill-rule="nonzero" group-id="1" node-id="250" stroke="none" target-height="122.70001" target-width="109.7" target-x="79.5" target-y="726.5"></path><path d="M 296.00 542.40 L 57.50 280.20 L 59.70 289.20 L 60.90 296.00 L 63.50 319.80 L 65.40 349.40 L 67.10 400.20 L 67.50 452.60 L 67.20 485.00 L 65.60 525.00 L 64.90 534.30 L 64.10 542.40 L 63.20 547.00 L 307.90 810.70 L 312.50 810.30 L 319.40 809.00 L 329.50 806.60 L 345.30 802.30 L 366.20 796.00 L 388.80 788.70 L 444.00 769.80 L 543.90 733.60 L 618.00 705.90 L 774.90 645.80 L 928.10 585.80 L 1059.30 533.50 L 1080.30 260.00 L 296.00 542.40 Z" fill="url(#paint2_linear_54_382)" fill-rule="nonzero" group-id="1" node-id="252" stroke="none" target-height="550.7" target-width="1022.80005" target-x="57.5" target-y="260"></path><path d="M 791.20 69.70 L 59.10 281.90 L 296.10 542.70 L 1081.40 261.70 L 791.20 69.70 Z" fill="#9f0b1b" fill-rule="nonzero" group-id="1" node-id="254" stroke="none" target-height="473" target-width="1022.30005" target-x="59.1" target-y="69.7"></path><path d="M 296.10 539.40 L 59.10 282.10 L 793.00 68.60 L 800.10 73.80 L 810.20 80.50 L 834.60 95.30 L 864.70 112.20 L 898.80 130.60 L 972.80 168.80 L 1074.00 219.00 L 1065.50 225.20 L 1054.90 232.10 L 1042.00 239.90 L 1028.80 247.40 L 996.80 264.10 L 970.60 277.00 L 940.80 291.00 L 909.80 305.00 L 876.00 319.70 L 804.50 349.80 L 767.10 365.00 L 689.40 395.70 L 571.20 440.80 L 494.40 469.20 L 421.50 495.50 L 354.70 519.20 L 296.10 539.40 Z" fill="#f7132b" fill-rule="nonzero" group-id="1" node-id="256" stroke="none" target-height="470.80002" target-width="1014.9" target-x="59.1" target-y="68.6"></path><path d="M 793.00 68.60 L 800.10 73.80 L 810.20 80.50 L 834.60 95.30 L 864.70 112.20 L 898.80 130.60 L 972.80 168.80 L 1074.00 219.00 L 1066.40 224.50 L 1057.10 230.70 L 1034.50 244.20 L 1007.10 258.90 L 984.60 270.20 L 959.10 282.50 L 932.60 294.70 L 873.70 320.70 L 842.00 334.20 L 775.80 361.40 L 749.10 352.30 L 726.50 343.30 L 699.70 331.50 L 685.10 324.40 L 670.40 316.70 L 655.30 308.20 L 635.50 295.90 L 616.00 282.20 L 606.70 274.90 L 597.70 267.30 L 588.90 259.30 L 581.00 251.50 L 567.60 236.80 L 555.90 221.90 L 547.00 208.50 L 541.70 199.40 L 537.50 191.20 L 531.00 176.30 L 527.00 164.40 L 525.10 156.50 L 523.60 146.90 L 793.00 68.60 Z" fill="#fff9b9" fill-rule="nonzero" group-id="1" node-id="258" stroke="none" target-height="292.8" target-width="550.4" target-x="523.6" target-y="68.6"></path><path d="M 793.00 68.60 L 800.10 73.80 L 810.20 80.50 L 834.60 95.30 L 864.70 112.20 L 898.80 130.60 L 972.80 168.80 L 1074.00 219.00 L 1056.20 231.60 L 1033.20 245.90 L 1016.90 255.00 L 998.10 265.00 L 976.50 275.70 L 930.30 297.30 L 902.80 309.50 L 860.20 327.60 L 810.60 348.00 L 782.40 339.80 L 758.60 331.70 L 730.60 320.70 L 715.50 314.00 L 695.10 304.10 L 674.40 292.70 L 654.20 280.00 L 644.40 273.10 L 635.00 265.90 L 625.90 258.30 L 617.10 250.30 L 602.20 235.00 L 589.70 220.20 L 579.40 206.00 L 570.00 190.40 L 565.70 182.20 L 562.40 174.80 L 559.30 167.30 L 555.30 155.30 L 553.40 147.50 L 551.80 137.90 L 793.00 68.60 Z" fill="#f7132b" fill-rule="nonzero" group-id="1" node-id="260" stroke="none" target-height="279.4" target-width="522.2" target-x="551.8" target-y="68.6"></path><path d="M 651.40 278.50 L 649.50 281.70 L 647.30 284.60 L 644.80 287.20 L 641.80 289.70 L 637.50 292.50 L 632.80 294.80 L 627.50 296.70 L 622.10 298.00 L 616.40 298.80 L 610.40 299.00 L 604.40 298.60 L 598.40 297.70 L 592.40 296.10 L 583.90 292.60 L 576.80 288.20 L 570.90 282.90 L 566.50 277.10 L 564.80 273.90 L 563.60 270.70 L 562.70 267.40 L 562.30 264.10 L 562.30 260.80 L 562.70 257.50 L 563.70 254.20 L 565.10 250.80 L 566.90 247.70 L 569.10 244.80 L 571.70 242.20 L 574.60 239.70 L 578.90 236.90 L 583.70 234.60 L 588.90 232.70 L 594.40 231.40 L 600.10 230.60 L 606.00 230.40 L 612.00 230.80 L 618.00 231.70 L 624.10 233.30 L 632.60 236.80 L 639.60 241.20 L 645.60 246.50 L 650.00 252.30 L 651.60 255.50 L 652.90 258.70 L 653.70 261.90 L 654.20 265.30 L 654.20 268.60 L 653.70 271.90 L 652.80 275.20 L 651.40 278.50 Z" fill="#ffef81" fill-rule="nonzero" group-id="1" node-id="262" stroke="none" target-height="68.600006" target-width="91.900024" target-x="562.3" target-y="230.4"></path><path d="M 641.80 275.50 L 639.80 278.70 L 637.30 281.50 L 634.30 284.10 L 631.00 286.30 L 627.30 288.10 L 623.20 289.60 L 619.00 290.60 L 614.60 291.20 L 609.90 291.40 L 605.30 291.10 L 600.60 290.30 L 595.90 289.10 L 591.30 287.30 L 587.30 285.30 L 583.80 283.00 L 580.60 280.20 L 577.90 277.40 L 575.80 274.30 L 574.10 271.00 L 573.00 267.70 L 572.50 264.30 L 572.60 260.80 L 573.30 257.40 L 574.70 253.90 L 576.60 250.70 L 579.10 247.90 L 582.10 245.30 L 585.40 243.10 L 589.10 241.30 L 593.20 239.80 L 597.50 238.80 L 601.90 238.20 L 606.50 238.00 L 611.20 238.30 L 615.80 239.10 L 620.60 240.30 L 625.10 242.00 L 629.10 244.10 L 632.70 246.40 L 635.90 249.10 L 638.50 252.00 L 640.70 255.10 L 642.40 258.40 L 643.40 261.70 L 644.00 265.10 L 643.90 268.60 L 643.20 272.00 L 641.80 275.50 Z" fill="#f6d21a" fill-rule="nonzero" group-id="1" node-id="264" stroke="none" target-height="53.399994" target-width="71.5" target-x="572.5" target-y="238"></path><path d="M 603.90 257.10 L 607.10 243.70 L 608.10 242.50 L 609.00 242.10 L 609.90 242.10 L 610.90 242.50 L 612.00 243.60 L 613.10 245.10 L 613.60 246.40 L 613.70 247.70 L 610.10 263.20 L 627.20 263.20 L 629.70 264.30 L 630.80 265.40 L 631.70 266.60 L 632.00 267.60 L 631.80 268.40 L 631.20 269.10 L 629.70 269.80 L 614.70 269.60 L 618.10 273.80 L 618.30 274.80 L 618.00 275.70 L 617.20 276.60 L 616.30 277.00 L 615.30 277.00 L 614.20 276.40 L 608.00 269.60 L 604.00 272.00 L 610.10 279.40 L 610.40 280.40 L 610.10 281.30 L 609.30 282.10 L 608.40 282.60 L 607.40 282.50 L 606.20 282.00 L 599.60 274.60 L 593.50 278.20 L 592.30 278.60 L 591.00 278.50 L 589.70 277.90 L 588.20 276.50 L 587.10 274.90 L 586.80 273.80 L 586.90 272.90 L 587.50 272.20 L 594.10 268.30 L 588.20 261.40 L 587.40 260.30 L 587.30 259.30 L 587.50 258.50 L 589.30 257.20 L 590.30 257.10 L 591.30 257.60 L 598.50 265.60 L 602.50 263.30 L 596.10 255.90 L 595.40 254.70 L 595.20 253.80 L 595.50 252.90 L 597.20 251.60 L 598.20 251.60 L 599.20 252.10 L 603.90 257.10 Z" fill="#fff8cb" fill-rule="nonzero" group-id="1" node-id="266" stroke="none" target-height="40.5" target-width="45.200012" target-x="586.8" target-y="242.1"></path><path d="M 302.80 585.20 L 267.80 561.30 L 303.10 599.50 L 400.90 560.80 L 302.80 585.20 Z" fill="#9f0b1b" fill-rule="nonzero" group-id="1" node-id="268" stroke="none" target-height="38.700012" target-width="133.1" target-x="267.8" target-y="560.8"></path><path d="M 455.80 542.20 L 553.70 507.30 L 624.30 482.60 L 681.40 463.20 L 700.10 457.20 L 709.80 454.60 L 615.50 489.00 L 546.30 513.60 L 488.30 533.20 L 468.00 539.30 L 455.80 542.20 Z" fill="#9f0b1b" fill-rule="nonzero" group-id="1" node-id="270" stroke="none" target-height="87.600006" target-width="254" target-x="455.8" target-y="454.6"></path><path d="M 977.50 319.00 L 1079.10 275.40 L 1078.20 288.50 L 977.50 319.00 Z" fill="#9f0b1b" fill-rule="nonzero" group-id="1" node-id="272" stroke="none" target-height="43.600006" target-width="101.599976" target-x="977.5" target-y="275.4"></path><path d="M 1027.90 344.30 L 871.30 402.70 L 819.80 422.20 L 796.40 431.50 L 889.10 397.60 L 954.60 373.30 L 1005.80 353.70 L 1021.40 347.40 L 1027.90 344.30 Z" fill="#9f0b1b" fill-rule="nonzero" group-id="1" node-id="274" stroke="none" target-height="87.20001" target-width="231.5" target-x="796.4" target-y="344.3"></path><path d="M 111.40 374.90 L 63.20 316.80 L 63.90 327.70 L 111.40 374.90 Z" fill="#9f0b1b" fill-rule="nonzero" group-id="1" node-id="276" stroke="none" target-height="58.100006" target-width="48.2" target-x="63.2" target-y="316.8"></path><path d="M 126.80 404.70 L 205.80 493.90 L 229.70 520.30 L 236.50 527.40 L 194.30 482.80 L 157.90 443.00 L 136.70 418.40 L 132.10 412.70 L 128.30 407.50 L 126.80 404.70 Z" fill="#9f0b1b" fill-rule="nonzero" group-id="1" node-id="278" stroke="none" target-height="122.70001" target-width="109.7" target-x="126.8" target-y="404.7"></path><path d="M 923.60 1423.80 L 923.60 1420.40 L 922.80 1417.20 L 918.60 1405.70 L 912.10 1391.20 L 890.40 1346.10 L 946.90 1316.60 L 1020.20 1435.90 L 865.50 1509.80 L 862.50 1505.10 L 857.90 1496.50 L 856.50 1491.80 L 856.60 1490.40 L 859.70 1486.70 L 867.20 1479.50 L 901.30 1447.70 L 912.00 1437.40 L 919.80 1429.00 L 922.50 1425.60 L 923.60 1423.80 Z" fill="#fddcd5" fill-rule="nonzero" group-id="1" node-id="280" stroke="none" target-height="193.20007" target-width="163.70001" target-x="856.5" target-y="1316.6"></path><path d="M 1488.70 1325.00 L 1485.60 1323.70 L 1482.30 1323.10 L 1470.10 1322.50 L 1454.20 1322.70 L 1404.10 1324.90 L 1399.40 1261.40 L 1537.90 1241.10 L 1544.80 1412.40 L 1539.30 1413.30 L 1529.60 1414.10 L 1527.00 1414.00 L 1524.70 1413.60 L 1523.40 1412.90 L 1521.30 1408.50 L 1517.60 1398.80 L 1501.90 1354.90 L 1496.60 1341.10 L 1492.00 1330.60 L 1489.90 1326.70 L 1488.70 1325.00 Z" fill="#fddcd5" fill-rule="nonzero" group-id="1" node-id="282" stroke="none" target-height="173" target-width="145.40002" target-x="1399.4" target-y="1241.1"></path><path d="M 989.20 1383.40 L 988.00 1386.80 L 984.60 1391.30 L 978.00 1397.20 L 973.40 1400.70 L 966.10 1405.60 L 957.60 1410.70 L 948.70 1415.60 L 939.20 1420.30 L 920.30 1428.60 L 912.60 1435.00 L 902.50 1444.10 L 869.30 1475.60 L 853.80 1489.80 L 852.60 1491.70 L 851.90 1493.80 L 851.60 1498.30 L 852.00 1500.70 L 853.10 1504.10 L 854.80 1507.20 L 856.20 1509.00 L 859.20 1511.50 L 860.90 1512.10 L 862.60 1512.20 L 864.30 1511.80 L 1022.60 1435.50 L 989.20 1383.40 Z" fill="#0c0024" fill-rule="nonzero" group-id="1" node-id="284" stroke="none" target-height="128.79993" target-width="171" target-x="851.6" target-y="1383.4"></path><path d="M 1477.10 1249.10 L 1479.70 1251.50 L 1482.50 1256.40 L 1485.40 1264.80 L 1486.80 1270.40 L 1488.40 1279.00 L 1489.80 1288.80 L 1490.80 1299.00 L 1491.50 1309.50 L 1491.70 1330.20 L 1494.60 1339.80 L 1499.00 1352.60 L 1515.00 1395.50 L 1522.00 1415.30 L 1523.30 1417.10 L 1524.90 1418.60 L 1529.00 1420.60 L 1531.30 1421.20 L 1534.90 1421.50 L 1538.40 1421.20 L 1540.60 1420.60 L 1542.50 1419.80 L 1544.10 1418.80 L 1545.30 1417.50 L 1546.10 1416.00 L 1546.30 1414.30 L 1538.00 1238.70 L 1477.10 1249.10 Z" fill="#0c0024" fill-rule="nonzero" group-id="1" node-id="286" stroke="none" target-height="182.80005" target-width="69.20007" target-x="1477.1" target-y="1238.7"></path><path d="M 728.30 993.60 L 729.70 989.90 L 731.70 986.10 L 734.30 982.20 L 737.50 978.10 L 741.30 973.90 L 746.20 969.20 L 751.90 964.40 L 758.50 959.40 L 766.00 954.30 L 776.10 947.90 L 787.40 941.50 L 800.10 934.80 L 812.90 928.60 L 841.20 915.80 L 863.50 906.60 L 887.10 897.40 L 911.00 888.60 L 959.80 871.50 L 1071.80 834.20 L 1094.50 832.90 L 1120.90 832.00 L 1149.00 831.80 L 1177.00 832.50 L 1202.90 834.40 L 1214.80 836.00 L 1225.00 837.80 L 1231.50 839.40 L 1236.90 841.20 L 1241.30 843.00 L 1244.50 844.70 L 1246.90 846.50 L 1248.70 848.30 L 1249.90 850.10 L 1252.60 855.80 L 1255.10 862.20 L 1257.40 869.30 L 1259.50 877.10 L 1261.80 887.60 L 1263.70 899.10 L 1265.40 911.80 L 1266.60 924.40 L 1268.20 952.10 L 1268.60 973.70 L 1268.50 996.40 L 1267.90 1019.30 L 1266.80 1042.60 L 1263.70 1089.00 L 1259.60 1133.70 L 1255.20 1174.80 L 1245.40 1257.70 L 1245.00 1265.70 L 1245.60 1266.30 L 1247.20 1266.80 L 1256.00 1267.70 L 1264.10 1267.80 L 1283.70 1267.30 L 1333.90 1264.40 L 1408.50 1258.40 L 1417.10 1327.70 L 1396.10 1333.50 L 1384.60 1337.20 L 1311.20 1362.60 L 1292.20 1368.90 L 1273.40 1374.70 L 1260.90 1378.20 L 1236.90 1383.70 L 1227.90 1385.40 L 1211.10 1387.40 L 1203.20 1387.90 L 1195.10 1387.90 L 1187.60 1387.50 L 1180.50 1386.50 L 1173.80 1385.10 L 1168.40 1383.60 L 1163.40 1381.70 L 1158.70 1379.40 L 1154.30 1376.70 L 1150.10 1373.60 L 1148.50 1371.70 L 1146.30 1368.20 L 1143.50 1362.20 L 1139.80 1352.50 L 1135.40 1338.90 L 1131.10 1324.10 L 1121.40 1287.50 L 1111.40 1245.20 L 1096.30 1176.30 L 1087.00 1130.40 L 1078.70 1087.20 L 1071.80 1049.40 L 1046.50 1049.20 L 1017.50 1049.60 L 971.30 1051.40 L 941.30 1053.70 L 927.40 1055.20 L 914.10 1056.90 L 894.90 1060.50 L 883.00 1063.90 L 877.60 1066.00 L 873.70 1068.10 L 870.90 1070.20 L 869.60 1071.90 L 868.50 1074.20 L 867.70 1077.20 L 867.30 1081.20 L 867.40 1086.30 L 868.00 1092.70 L 869.40 1100.50 L 873.30 1116.70 L 880.80 1141.00 L 892.50 1173.70 L 906.20 1208.70 L 953.80 1323.50 L 888.70 1357.70 L 877.70 1339.30 L 865.30 1319.80 L 811.50 1237.10 L 797.90 1215.60 L 784.70 1194.00 L 776.30 1179.50 L 760.60 1150.90 L 753.40 1136.40 L 746.90 1122.30 L 741.10 1108.40 L 737.00 1097.80 L 733.50 1087.50 L 730.40 1077.40 L 727.90 1067.50 L 725.80 1057.40 L 724.30 1047.60 L 723.30 1038.20 L 723.00 1029.00 L 723.20 1021.50 L 723.80 1014.30 L 724.80 1007.20 L 726.30 1000.30 L 728.30 993.60 Z" fill="#12348d" fill-rule="nonzero" group-id="1" node-id="288" stroke="none" target-height="556.10004" target-width="694.1" target-x="723" target-y="831.8"></path><path d="M 1200.80 169.40 L 1193.10 168.00 L 1185.60 167.10 L 1178.20 166.70 L 1171.00 166.70 L 1163.90 167.10 L 1156.80 168.00 L 1149.80 169.30 L 1143.00 170.90 L 1136.50 172.90 L 1130.10 175.40 L 1122.20 178.90 L 1114.80 183.00 L 1107.70 187.50 L 1101.00 192.60 L 1094.70 198.20 L 1088.80 204.10 L 1083.40 210.50 L 1078.50 217.40 L 1074.90 223.10 L 1071.70 229.10 L 1068.90 235.30 L 1066.40 241.70 L 1064.30 248.40 L 1060.70 262.40 L 1057.70 276.50 L 1055.30 290.60 L 1053.50 304.80 L 1052.20 319.00 L 1051.40 333.30 L 1051.20 347.50 L 1051.50 361.70 L 1052.30 375.90 L 1053.60 390.00 L 1055.30 403.90 L 1057.50 417.80 L 1060.10 431.60 L 1063.10 445.20 L 1066.40 458.60 L 1070.20 471.80 L 1074.30 485.00 L 1083.50 510.30 L 1094.00 534.60 L 1105.50 557.60 L 1118.00 579.20 L 1131.20 599.20 L 1138.00 608.40 L 1145.20 617.50 L 1152.40 625.90 L 1159.70 633.80 L 1166.90 641.00 L 1171.40 645.00 L 1176.10 648.60 L 1181.20 651.90 L 1186.50 654.90 L 1192.20 657.60 L 1199.40 660.50 L 1207.00 662.90 L 1215.00 665.00 L 1223.50 666.60 L 1231.90 667.80 L 1249.70 669.20 L 1259.00 669.30 L 1271.40 669.00 L 1284.10 668.20 L 1297.00 666.80 L 1309.90 665.00 L 1335.60 660.40 L 1348.40 657.50 L 1373.00 651.20 L 1390.90 645.90 L 1407.50 640.50 L 1423.30 634.80 L 1437.10 629.50 L 1450.00 624.10 L 1460.20 619.40 L 1469.20 614.70 L 1474.80 611.30 L 1477.60 609.30 L 1479.30 607.20 L 1479.30 606.60 L 1478.50 605.60 L 1477.10 604.80 L 1474.80 604.20 L 1466.10 603.60 L 1449.10 604.10 L 1437.90 603.80 L 1433.40 603.10 L 1430.50 602.20 L 1428.30 601.10 L 1426.70 599.80 L 1425.30 597.20 L 1425.10 595.50 L 1425.40 593.40 L 1426.20 590.80 L 1428.10 587.30 L 1431.20 582.80 L 1434.40 579.20 L 1437.50 576.30 L 1440.70 574.10 L 1444.00 572.40 L 1447.50 571.10 L 1451.10 570.30 L 1454.80 569.80 L 1458.60 569.80 L 1463.70 570.30 L 1468.80 571.30 L 1474.20 572.90 L 1482.00 575.80 L 1489.80 579.50 L 1522.30 596.80 L 1529.00 599.20 L 1531.70 599.60 L 1534.50 599.40 L 1537.40 598.60 L 1540.40 597.20 L 1546.10 593.10 L 1551.90 586.80 L 1555.40 581.90 L 1558.70 576.20 L 1561.90 569.60 L 1564.50 562.80 L 1566.80 555.40 L 1568.70 547.30 L 1570.40 534.90 L 1570.80 521.60 L 1570.40 514.90 L 1569.60 508.10 L 1568.40 501.10 L 1566.60 494.00 L 1564.90 488.90 L 1562.80 484.10 L 1560.40 479.60 L 1557.60 475.40 L 1553.30 470.20 L 1548.60 465.40 L 1543.40 461.00 L 1537.90 457.00 L 1532.20 453.30 L 1526.20 450.00 L 1517.00 445.60 L 1507.90 441.80 L 1498.90 438.50 L 1470.30 428.90 L 1466.60 427.10 L 1465.00 426.00 L 1464.20 425.00 L 1463.90 423.20 L 1464.70 422.00 L 1465.80 421.10 L 1467.50 420.40 L 1470.30 419.80 L 1478.10 419.70 L 1495.30 420.90 L 1501.00 420.40 L 1503.80 419.20 L 1504.70 418.30 L 1505.10 417.00 L 1504.90 415.20 L 1504.30 413.50 L 1500.70 407.90 L 1498.40 405.40 L 1495.70 403.20 L 1492.50 401.10 L 1488.70 399.30 L 1483.50 397.40 L 1477.60 395.60 L 1470.90 394.20 L 1460.60 392.50 L 1449.10 391.20 L 1412.50 388.00 L 1400.20 386.60 L 1392.00 385.50 L 1376.60 382.50 L 1369.20 380.50 L 1362.30 378.10 L 1356.00 375.40 L 1353.00 373.70 L 1350.00 371.40 L 1347.10 368.60 L 1344.30 365.30 L 1341.10 360.50 L 1337.90 354.90 L 1334.70 348.40 L 1330.30 338.20 L 1312.10 287.80 L 1303.00 264.90 L 1294.40 246.80 L 1289.60 237.90 L 1284.30 229.30 L 1278.70 221.00 L 1269.20 209.30 L 1264.00 203.70 L 1258.50 198.50 L 1252.70 193.50 L 1246.50 188.90 L 1239.90 184.70 L 1232.90 180.70 L 1225.70 177.30 L 1218.00 174.20 L 1209.70 171.60 L 1200.80 169.40 Z" fill="#7f5849" fill-rule="nonzero" group-id="1" node-id="290" stroke="none" target-height="502.59998" target-width="519.6001" target-x="1051.2" target-y="166.7"></path><path d="M 1138.10 444.20 L 1140.30 440.90 L 1142.10 437.20 L 1143.50 433.00 L 1144.50 428.70 L 1145.50 419.20 L 1145.60 411.70 L 1145.00 404.00 L 1142.70 388.80 L 1139.40 375.00 L 1135.90 363.80 L 1174.30 362.20 L 1194.30 361.80 L 1212.00 362.10 L 1219.50 362.50 L 1228.50 363.80 L 1230.40 364.50 L 1231.40 365.10 L 1231.70 365.70 L 1231.50 366.30 L 1230.70 367.10 L 1226.90 369.50 L 1225.30 371.00 L 1224.00 372.80 L 1223.00 375.00 L 1222.20 378.00 L 1221.70 381.60 L 1221.70 385.70 L 1222.30 392.00 L 1223.60 399.00 L 1225.40 406.20 L 1236.10 440.80 L 1237.60 446.40 L 1238.30 450.50 L 1238.40 453.20 L 1238.10 454.80 L 1237.40 455.90 L 1231.60 460.90 L 1225.90 465.10 L 1220.20 468.70 L 1214.60 471.70 L 1208.70 474.30 L 1202.90 476.30 L 1197.30 477.80 L 1191.80 478.80 L 1180.80 479.70 L 1170.70 479.00 L 1164.20 477.80 L 1158.40 476.10 L 1153.10 473.90 L 1146.00 469.80 L 1140.70 465.30 L 1138.50 462.60 L 1136.80 460.00 L 1135.70 457.40 L 1135.10 454.80 L 1135.00 452.10 L 1135.40 449.50 L 1136.40 446.90 L 1138.10 444.20 Z" fill="#fddcd5" fill-rule="nonzero" group-id="1" node-id="292" stroke="none" target-height="117.900024" target-width="103.400024" target-x="1135" target-y="361.8"></path><path d="M 911.70 591.20 L 969.60 573.80 L 1028.20 654.50 L 1022.10 657.90 L 1017.80 659.80 L 1002.70 665.10 L 984.40 669.90 L 964.30 674.10 L 943.90 677.40 L 924.60 679.60 L 916.50 680.00 L 894.20 679.40 L 866.90 677.30 L 820.90 672.40 L 717.50 659.00 L 706.80 657.90 L 680.00 659.20 L 662.60 659.10 L 653.70 658.50 L 647.80 657.90 L 636.80 655.90 L 631.50 654.50 L 626.90 652.70 L 622.80 650.70 L 619.90 648.80 L 617.50 646.80 L 615.60 644.60 L 614.00 642.10 L 612.90 639.50 L 612.30 636.50 L 612.10 633.20 L 612.60 629.40 L 614.00 626.80 L 615.20 625.70 L 619.20 623.80 L 625.80 622.50 L 631.30 622.00 L 656.80 621.80 L 667.90 621.20 L 672.00 620.40 L 674.40 619.50 L 676.00 618.40 L 676.90 617.20 L 677.10 616.40 L 676.60 614.70 L 670.80 609.40 L 669.40 607.70 L 668.40 605.80 L 668.10 602.70 L 668.50 600.90 L 669.10 599.90 L 670.70 598.90 L 673.70 599.20 L 678.60 601.20 L 697.90 612.00 L 703.40 614.70 L 708.90 616.90 L 716.30 618.90 L 719.70 619.30 L 726.40 619.30 L 747.40 617.70 L 790.20 612.20 L 822.40 607.30 L 855.00 601.80 L 911.70 591.20 Z" fill="#fddcd5" fill-rule="nonzero" group-id="1" node-id="294" stroke="none" target-height="106.20001" target-width="416.09998" target-x="612.1" target-y="573.8"></path><path d="M 969.30 563.00 L 973.80 561.00 L 978.90 558.30 L 984.60 554.70 L 995.80 546.30 L 1001.90 541.20 L 1020.10 524.40 L 1070.30 474.10 L 1068.80 490.20 L 1065.90 512.80 L 1061.80 540.10 L 1053.80 585.20 L 1047.60 615.40 L 1041.00 643.10 L 1034.30 666.40 L 1031.10 675.40 L 1026.60 685.20 L 1024.70 688.20 L 1022.90 690.30 L 1021.40 691.40 L 1020.10 691.80 L 1018.80 691.60 L 1016.80 690.70 L 1014.30 688.90 L 1011.00 685.90 L 1006.40 681.00 L 1001.00 674.20 L 995.60 666.80 L 989.90 658.20 L 984.40 649.10 L 978.90 639.40 L 973.90 629.50 L 966.70 612.90 L 962.40 600.40 L 960.80 594.20 L 959.80 588.60 L 959.30 583.50 L 959.20 579.60 L 960.20 573.10 L 961.20 570.40 L 962.50 568.00 L 964.30 565.90 L 966.50 564.30 L 969.30 563.00 Z" fill="url(#paint3_linear_54_382)" fill-rule="nonzero" group-id="1" node-id="296" stroke="none" target-height="217.69998" target-width="111.10004" target-x="959.2" target-y="474.1"></path><path d="M 1167.90 474.60 L 1160.70 473.90 L 1155.20 472.20 L 1151.90 470.40 L 1149.10 468.30 L 1146.80 465.90 L 1144.80 463.20 L 1143.30 460.40 L 1141.10 454.30 L 1140.20 448.20 L 1140.20 443.80 L 1140.70 440.10 L 1132.30 441.20 L 1127.70 442.30 L 1121.00 444.40 L 1114.10 447.00 L 1100.90 453.40 L 1089.20 460.40 L 1080.00 467.20 L 1073.10 473.20 L 1066.80 479.40 L 1060.90 485.70 L 1055.50 492.10 L 1050.60 498.70 L 1044.90 507.40 L 1039.80 516.40 L 1035.30 525.60 L 1031.30 535.10 L 1027.90 544.80 L 1024.90 554.80 L 1022.40 565.10 L 1020.30 575.60 L 1017.40 597.10 L 1016.50 608.30 L 1015.90 619.70 L 1015.60 634.90 L 1015.80 650.60 L 1016.40 666.60 L 1017.80 690.80 L 1019.90 715.70 L 1027.10 792.00 L 1029.20 817.80 L 1046.60 826.10 L 1055.50 829.70 L 1064.60 833.10 L 1076.90 837.10 L 1089.20 840.50 L 1101.70 843.50 L 1126.50 848.10 L 1150.80 851.10 L 1173.90 852.80 L 1190.70 853.30 L 1205.90 853.20 L 1220.40 852.70 L 1232.80 851.90 L 1253.00 849.60 L 1260.70 848.20 L 1265.00 847.00 L 1270.20 844.40 L 1274.30 841.60 L 1282.60 834.70 L 1292.70 824.60 L 1298.00 818.50 L 1309.00 804.00 L 1314.50 795.70 L 1320.10 786.30 L 1325.30 776.80 L 1330.40 766.20 L 1335.40 754.60 L 1341.90 736.50 L 1347.60 716.00 L 1350.00 705.60 L 1352.00 694.60 L 1353.70 682.90 L 1355.10 670.60 L 1357.00 648.60 L 1358.30 627.50 L 1359.00 600.10 L 1358.20 577.40 L 1357.30 567.90 L 1354.70 549.90 L 1352.80 541.10 L 1350.40 532.50 L 1347.70 524.30 L 1344.50 516.20 L 1340.90 508.50 L 1336.70 500.90 L 1332.00 493.60 L 1326.70 486.60 L 1320.30 479.30 L 1313.70 472.60 L 1306.80 466.40 L 1299.60 460.70 L 1292.10 455.40 L 1284.30 450.40 L 1276.20 445.80 L 1267.80 441.60 L 1256.40 436.50 L 1244.50 431.80 L 1232.10 427.40 L 1223.60 438.30 L 1218.20 444.30 L 1211.90 450.70 L 1205.20 456.70 L 1198.10 462.30 L 1193.10 465.70 L 1188.10 468.60 L 1183.10 471.00 L 1175.40 473.60 L 1167.90 474.60 Z" fill="url(#paint4_linear_54_382)" fill-rule="nonzero" group-id="1" node-id="298" stroke="none" target-height="425.9" target-width="343.40002" target-x="1015.6" target-y="427.4"></path><path d="M 1217.30 644.10 L 1246.00 550.50 L 1214.60 640.90 L 1217.30 644.10 Z" fill="#fab13c" fill-rule="nonzero" group-id="1" node-id="300" stroke="none" target-height="93.599976" target-width="31.400024" target-x="1214.6" target-y="550.5"></path><path d="M 1268.70 846.60 L 1275.80 841.30 L 1282.50 835.70 L 1288.90 829.70 L 1294.90 823.50 L 1300.60 816.90 L 1307.30 808.30 L 1313.40 799.30 L 1319.10 789.90 L 1324.40 780.10 L 1329.10 770.10 L 1333.50 759.80 L 1337.40 749.30 L 1340.90 738.50 L 1344.10 727.60 L 1349.30 705.60 L 1351.40 694.40 L 1353.60 679.40 L 1355.40 664.60 L 1356.60 649.90 L 1357.40 635.20 L 1357.80 607.30 L 1356.80 580.80 L 1354.60 556.90 L 1351.80 536.80 L 1353.10 551.70 L 1353.90 566.00 L 1354.30 579.90 L 1354.40 593.30 L 1354.00 606.30 L 1352.90 622.80 L 1351.40 638.60 L 1349.30 653.60 L 1346.80 668.00 L 1343.80 682.50 L 1340.40 696.20 L 1336.70 709.30 L 1332.70 721.60 L 1328.20 734.10 L 1323.60 745.80 L 1318.80 756.70 L 1313.90 767.00 L 1303.20 786.90 L 1292.60 803.80 L 1285.10 814.50 L 1278.00 823.80 L 1271.20 831.80 L 1264.00 839.50 L 1257.60 845.70 L 1251.90 850.70 L 1268.70 846.60 Z" fill="url(#paint5_linear_54_382)" fill-rule="nonzero" group-id="1" node-id="302" stroke="none" target-height="313.90002" target-width="105.900024" target-x="1251.9" target-y="536.8"></path><path d="M 1091.40 262.90 L 1087.80 280.00 L 1086.30 289.80 L 1084.80 308.00 L 1084.80 323.20 L 1085.30 330.90 L 1086.20 338.50 L 1087.50 346.00 L 1089.40 353.40 L 1091.70 360.60 L 1094.60 367.40 L 1097.10 372.30 L 1100.00 377.00 L 1103.30 381.40 L 1106.90 385.60 L 1110.90 389.50 L 1115.30 393.00 L 1120.30 396.20 L 1125.70 399.10 L 1131.30 401.40 L 1137.50 403.40 L 1144.40 405.00 L 1152.00 406.10 L 1165.20 406.70 L 1171.10 406.40 L 1182.00 404.70 L 1188.60 402.80 L 1194.80 400.60 L 1200.50 397.90 L 1205.80 394.80 L 1210.90 391.30 L 1215.60 387.40 L 1220.00 383.30 L 1224.10 378.90 L 1229.10 372.70 L 1233.60 366.20 L 1237.50 359.50 L 1241.40 359.30 L 1246.50 358.50 L 1251.80 357.30 L 1257.60 355.40 L 1265.10 351.90 L 1268.70 349.70 L 1272.00 347.10 L 1274.90 344.10 L 1277.50 340.80 L 1280.40 335.20 L 1281.40 331.90 L 1282.10 328.40 L 1282.20 324.40 L 1281.90 321.30 L 1281.10 318.80 L 1279.80 316.60 L 1278.30 314.80 L 1276.40 313.40 L 1272.00 311.50 L 1265.40 310.90 L 1261.30 311.10 L 1253.60 312.70 L 1255.30 299.80 L 1255.70 291.30 L 1255.30 279.70 L 1254.60 273.40 L 1252.30 261.10 L 1250.50 254.80 L 1248.40 248.70 L 1245.70 242.80 L 1242.50 236.90 L 1236.80 228.70 L 1233.40 224.80 L 1225.80 217.60 L 1221.40 214.40 L 1216.60 211.40 L 1211.30 208.60 L 1205.90 206.30 L 1199.90 204.20 L 1193.40 202.40 L 1186.30 201.00 L 1178.00 199.90 L 1170.40 199.30 L 1163.40 199.20 L 1157.10 199.70 L 1150.60 200.60 L 1144.70 201.80 L 1139.30 203.40 L 1134.30 205.40 L 1129.50 207.80 L 1125.00 210.40 L 1121.00 213.30 L 1117.20 216.40 L 1112.60 221.00 L 1108.50 225.80 L 1104.90 230.90 L 1101.70 236.20 L 1096.60 247.00 L 1093.60 255.20 L 1091.40 262.90 Z" fill="#ffe2db" fill-rule="evenodd" group-id="1" node-id="304" stroke="none" target-height="207.50002" target-width="197.3999" target-x="1084.8" target-y="199.2"></path><path d="M 1056.40 289.60 L 1057.60 285.50 L 1058.90 282.60 L 1060.40 280.60 L 1062.30 278.90 L 1064.30 277.90 L 1066.50 277.40 L 1071.10 277.60 L 1077.30 279.80 L 1080.90 281.80 L 1087.40 286.20 L 1086.40 294.30 L 1085.80 305.00 L 1085.50 316.90 L 1085.80 328.30 L 1086.80 337.70 L 1084.40 337.00 L 1081.10 335.40 L 1077.60 333.30 L 1073.70 330.30 L 1069.90 326.90 L 1066.10 322.80 L 1061.70 316.60 L 1058.10 309.60 L 1056.90 305.90 L 1056.00 302.00 L 1055.60 298.00 L 1055.70 293.90 L 1056.40 289.60 Z" fill="url(#paint6_linear_54_382)" fill-rule="nonzero" group-id="1" node-id="306" stroke="none" target-height="60.30002" target-width="31.800049" target-x="1055.6" target-y="277.4"></path><path d="M 1128.10 330.90 L 1132.00 327.60 L 1134.30 325.20 L 1140.60 316.70 L 1146.60 306.80 L 1151.70 297.10 L 1155.60 289.00 L 1155.60 300.50 L 1156.10 315.20 L 1155.70 319.50 L 1154.80 324.30 L 1152.30 330.90 L 1150.40 334.60 L 1147.80 338.50 L 1145.30 341.40 L 1142.90 343.50 L 1140.10 345.10 L 1137.60 346.10 L 1135.20 346.50 L 1132.70 346.50 L 1130.50 346.10 L 1126.70 344.20 L 1124.30 341.40 L 1123.60 339.70 L 1123.40 337.90 L 1123.70 336.10 L 1124.50 334.40 L 1125.90 332.70 L 1128.10 330.90 Z" fill="url(#paint7_linear_54_382)" fill-rule="nonzero" group-id="1" node-id="308" stroke="none" target-height="57.5" target-width="32.69995" target-x="1123.4" target-y="289"></path><path d="M 1235.50 309.00 L 1230.20 306.80 L 1225.10 304.20 L 1220.10 301.10 L 1215.20 297.70 L 1209.10 292.70 L 1203.20 287.30 L 1197.60 281.30 L 1192.30 275.00 L 1182.60 261.80 L 1174.20 248.10 L 1165.50 231.20 L 1161.40 222.00 L 1155.40 205.90 L 1166.20 200.70 L 1234.70 246.90 L 1270.80 305.30 L 1272.10 307.60 L 1272.80 309.90 L 1273.00 312.00 L 1272.70 313.20 L 1272.10 314.30 L 1269.60 315.90 L 1264.80 316.50 L 1261.90 316.30 L 1253.30 314.70 L 1245.70 312.50 L 1235.50 309.00 Z" fill="#ffaf9b" fill-opacity="0.6" fill-rule="nonzero" group-id="1,2" node-id="312" stroke="none" target-height="115.8" target-width="117.599976" target-x="1155.4" target-y="200.7"></path><path d="M 1089.70 287.30 L 1094.80 286.70 L 1099.60 285.70 L 1104.30 284.20 L 1108.70 282.40 L 1114.40 279.30 L 1119.80 275.80 L 1124.80 271.60 L 1129.50 267.10 L 1133.90 262.20 L 1138.00 257.00 L 1145.20 246.10 L 1152.40 232.20 L 1155.70 224.30 L 1158.40 216.70 L 1160.30 210.30 L 1158.90 200.10 L 1149.20 206.00 L 1097.80 253.20 L 1087.50 260.20 L 1082.30 264.20 L 1077.70 268.10 L 1072.60 273.50 L 1070.90 275.90 L 1069.50 278.40 L 1069.00 280.50 L 1069.10 282.30 L 1069.60 283.50 L 1070.60 284.60 L 1072.20 285.60 L 1074.60 286.50 L 1077.90 287.10 L 1082.80 287.40 L 1089.70 287.30 Z" fill="#ffaf9b" fill-opacity="0.6" fill-rule="nonzero" group-id="1,3" node-id="317" stroke="none" target-height="87.29999" target-width="91.30005" target-x="1069" target-y="200.1"></path><path d="M 1157.70 204.50 L 1165.60 219.50 L 1170.60 228.10 L 1182.80 247.40 L 1189.70 257.40 L 1196.90 267.30 L 1209.80 282.90 L 1220.40 293.80 L 1225.90 298.80 L 1231.40 303.00 L 1236.70 306.70 L 1244.90 311.10 L 1252.70 313.60 L 1260.10 314.90 L 1266.00 315.60 L 1270.60 315.80 L 1275.20 315.50 L 1278.70 314.90 L 1281.30 314.00 L 1283.70 312.60 L 1285.30 311.10 L 1286.40 309.50 L 1287.10 307.70 L 1287.40 303.70 L 1286.80 300.80 L 1285.80 298.00 L 1275.60 278.20 L 1263.50 256.40 L 1256.70 245.40 L 1249.50 234.70 L 1244.50 227.70 L 1234.10 215.10 L 1228.50 209.20 L 1222.90 204.10 L 1217.40 199.70 L 1212.90 196.70 L 1208.50 194.20 L 1204.10 192.20 L 1199.70 190.70 L 1195.10 189.70 L 1190.60 189.30 L 1185.90 189.40 L 1181.20 190.20 L 1177.70 191.20 L 1174.00 192.70 L 1170.30 194.60 L 1166.40 197.10 L 1162.40 200.20 L 1163.20 198.80 L 1163.30 197.90 L 1163.10 197.30 L 1162.30 196.90 L 1160.70 196.60 L 1157.90 196.80 L 1152.90 198.00 L 1145.00 200.60 L 1137.30 203.60 L 1127.30 208.20 L 1114.30 214.50 L 1111.10 216.40 L 1102.20 223.70 L 1091.90 233.90 L 1081.70 246.00 L 1077.00 252.10 L 1072.80 258.40 L 1069.50 264.30 L 1067.60 268.30 L 1065.40 275.00 L 1065.10 279.60 L 1066.20 283.10 L 1067.30 284.40 L 1068.70 285.60 L 1070.70 286.50 L 1075.90 287.40 L 1083.10 287.00 L 1088.10 286.10 L 1093.80 284.60 L 1099.10 282.70 L 1104.10 280.50 L 1108.80 277.90 L 1114.80 273.90 L 1120.30 269.40 L 1125.30 264.50 L 1130.00 259.30 L 1134.30 253.80 L 1141.60 242.50 L 1147.50 231.30 L 1151.10 223.10 L 1153.90 216.00 L 1157.70 204.50 Z" fill="#7f5849" fill-rule="nonzero" group-id="1" node-id="320" stroke="none" target-height="126.499985" target-width="222.30005" target-x="1065.1" target-y="189.3"></path><path d="M 1191.30 267.30 L 1181.20 250.00 L 1172.20 232.40 L 1164.50 215.40 L 1158.20 200.20 L 1155.20 201.40 L 1161.50 216.70 L 1169.20 233.80 L 1173.60 242.60 L 1183.30 260.40 L 1188.50 269.00 L 1194.10 277.30 L 1199.80 285.00 L 1207.80 294.40 L 1216.20 302.30 L 1220.50 305.60 L 1224.80 308.40 L 1229.30 310.80 L 1233.90 312.50 L 1238.40 313.50 L 1245.60 314.50 L 1251.60 314.80 L 1256.50 314.60 L 1261.50 314.00 L 1265.50 313.00 L 1268.80 311.90 L 1274.30 308.90 L 1278.40 304.90 L 1279.60 303.00 L 1276.70 301.50 L 1275.80 302.90 L 1272.40 306.20 L 1267.50 308.90 L 1264.60 309.90 L 1260.90 310.70 L 1256.30 311.30 L 1251.60 311.50 L 1245.90 311.20 L 1239.00 310.30 L 1234.90 309.30 L 1230.70 307.80 L 1226.40 305.60 L 1222.40 303.00 L 1218.30 299.80 L 1210.20 292.20 L 1202.40 283.00 L 1196.80 275.50 L 1191.30 267.30 Z" fill="#7f5849" fill-rule="evenodd" group-id="1" node-id="322" stroke="none" target-height="114.59999" target-width="124.400024" target-x="1155.2" target-y="200.2"></path><path d="M 1184.20 327.30 L 1183.90 330.40 L 1184.20 333.30 L 1185.00 336.20 L 1186.30 338.80 L 1188.00 341.20 L 1190.10 343.30 L 1192.50 344.90 L 1195.20 346.20 L 1198.20 347.00 L 1201.40 347.20 L 1204.30 346.90 L 1207.20 346.10 L 1209.80 344.80 L 1212.20 343.10 L 1214.20 341.10 L 1215.90 338.60 L 1217.20 335.90 L 1218.00 332.90 L 1218.20 329.80 L 1217.90 326.80 L 1217.10 324.00 L 1215.80 321.30 L 1214.10 319.00 L 1212.00 316.90 L 1209.60 315.20 L 1206.90 314.00 L 1203.90 313.20 L 1200.80 312.90 L 1197.80 313.20 L 1195.00 314.10 L 1192.30 315.30 L 1190.00 317.00 L 1187.90 319.10 L 1186.20 321.50 L 1185.00 324.20 L 1184.20 327.30 Z" fill="#ffac97" fill-opacity="0.8" fill-rule="nonzero" filter="url(#filter0_f_54_382)" group-id="1,4" node-id="326" stroke="none" target-height="34.30002" target-width="34.299927" target-x="1183.9" target-y="312.9"></path><path d="M 1088.80 311.30 L 1088.40 314.70 L 1088.60 317.80 L 1089.20 320.80 L 1090.20 323.60 L 1091.60 326.00 L 1093.30 328.10 L 1095.40 329.90 L 1097.60 331.10 L 1100.20 331.80 L 1102.90 332.00 L 1105.40 331.60 L 1107.90 330.60 L 1110.20 329.20 L 1112.30 327.30 L 1114.20 325.00 L 1115.80 322.40 L 1116.90 319.40 L 1117.70 316.20 L 1118.00 312.80 L 1117.90 309.60 L 1117.30 306.70 L 1116.20 303.80 L 1114.90 301.40 L 1113.20 299.30 L 1111.10 297.60 L 1108.80 296.40 L 1106.30 295.60 L 1103.60 295.50 L 1101.00 295.90 L 1098.50 296.90 L 1096.20 298.30 L 1094.20 300.20 L 1092.30 302.50 L 1090.70 305.10 L 1089.60 308.00 L 1088.80 311.30 Z" fill="#ffac97" fill-opacity="0.8" fill-rule="nonzero" filter="url(#filter1_f_54_382)" group-id="1,5" node-id="331" stroke="none" target-height="36.5" target-width="29.599976" target-x="1088.4" target-y="295.5"></path><path d="M 1183.10 310.80 L 1182.30 316.00 L 1182.90 320.70 L 1184.40 324.40 L 1185.60 325.90 L 1187.00 326.90 L 1188.60 327.60 L 1190.40 327.80 L 1192.10 327.60 L 1193.90 326.90 L 1197.00 324.40 L 1198.50 322.60 L 1200.90 318.30 L 1202.30 313.00 L 1202.30 308.20 L 1201.90 305.90 L 1200.30 302.20 L 1199.10 300.70 L 1197.80 299.60 L 1196.20 299.00 L 1194.40 298.80 L 1192.70 299.00 L 1189.30 300.70 L 1186.20 303.90 L 1185.00 305.90 L 1183.10 310.80 Z" fill="#7f5849" fill-rule="nonzero" group-id="1" node-id="334" stroke="none" target-height="29" target-width="20" target-x="1182.3" target-y="298.8"></path><path d="M 1109.00 299.10 L 1108.60 304.10 L 1109.40 308.50 L 1111.10 311.90 L 1112.30 313.20 L 1113.70 314.10 L 1115.30 314.60 L 1116.90 314.70 L 1118.50 314.40 L 1120.20 313.60 L 1123.00 311.10 L 1125.40 307.40 L 1127.00 302.60 L 1127.30 297.70 L 1126.60 293.30 L 1124.90 289.90 L 1123.60 288.50 L 1122.20 287.60 L 1120.70 287.10 L 1119.00 287.00 L 1117.40 287.30 L 1115.80 288.10 L 1112.90 290.60 L 1110.50 294.40 L 1109.00 299.10 Z" fill="#80594a" fill-rule="nonzero" group-id="1" node-id="336" stroke="none" target-height="27.700012" target-width="18.700073" target-x="1108.6" target-y="287"></path><path d="M 1132.50 281.60 L 1133.10 282.40 L 1133.10 282.70 L 1132.70 282.80 L 1120.10 279.50 L 1118.20 279.30 L 1110.60 279.80 L 1109.80 279.60 L 1109.80 278.80 L 1111.50 277.10 L 1114.80 276.30 L 1117.70 276.30 L 1121.20 276.70 L 1127.70 278.70 L 1130.50 280.10 L 1132.50 281.60 Z" fill="#7d5648" fill-rule="nonzero" group-id="1" node-id="338" stroke="none" target-height="6.5" target-width="23.299927" target-x="1109.8" target-y="276.3"></path><path d="M 1184.40 290.20 L 1183.50 290.80 L 1183.40 291.10 L 1183.70 291.30 L 1196.70 292.30 L 1198.60 292.80 L 1205.60 295.60 L 1206.40 295.70 L 1206.70 295.00 L 1205.60 292.90 L 1202.80 291.00 L 1200.00 290.10 L 1196.60 289.40 L 1189.80 289.00 L 1186.60 289.50 L 1184.40 290.20 Z" fill="#7d5648" fill-rule="nonzero" group-id="1" node-id="340" stroke="none" target-height="6.700012" target-width="23.299927" target-x="1183.4" target-y="289"></path><path d="M 1089.00 335.90 L 1088.00 326.60 L 1087.50 308.80 L 1087.80 300.90 L 1088.90 287.10 L 1086.80 286.80 L 1086.10 293.10 L 1085.30 308.80 L 1085.40 317.70 L 1085.80 326.80 L 1087.70 342.50 L 1090.50 354.70 L 1092.30 360.70 L 1094.50 366.40 L 1097.10 371.90 L 1100.10 377.10 L 1103.50 381.80 L 1107.30 386.10 L 1112.00 390.50 L 1116.50 394.10 L 1120.90 397.10 L 1129.60 401.90 L 1139.30 405.50 L 1144.10 406.60 L 1151.70 407.30 L 1151.70 405.20 L 1144.50 404.40 L 1139.90 403.40 L 1130.50 399.90 L 1122.00 395.20 L 1117.80 392.30 L 1113.40 388.80 L 1108.80 384.50 L 1105.20 380.40 L 1101.90 375.90 L 1099.00 370.90 L 1096.50 365.60 L 1094.40 360.00 L 1092.60 354.20 L 1089.90 342.10 L 1089.00 335.90 Z" fill="url(#paint8_linear_54_382)" fill-opacity="0.6" fill-rule="evenodd" group-id="1,6" node-id="344" stroke="none" target-height="120.5" target-width="66.3999" target-x="1085.3" target-y="286.8"></path><path d="M 1267.80 323.40 L 1266.90 322.60 L 1264.60 323.20 L 1259.30 325.80 L 1256.40 327.70 L 1251.00 332.20 L 1248.80 334.80 L 1247.10 337.90 L 1247.70 338.90 L 1248.90 338.80 L 1250.50 336.10 L 1254.90 331.50 L 1260.40 327.70 L 1262.90 326.30 L 1267.30 324.60 L 1267.80 323.40 Z" fill="#ed8267" fill-rule="evenodd" group-id="1" node-id="347" stroke="none" target-height="16.299988" target-width="20.700073" target-x="1247.1" target-y="322.6"></path><path d="M 1068.00 291.10 L 1069.20 290.80 L 1070.90 292.40 L 1074.30 297.30 L 1075.90 300.30 L 1078.40 306.80 L 1079.10 310.20 L 1079.10 313.80 L 1078.00 314.40 L 1077.10 313.60 L 1076.90 310.50 L 1075.30 304.30 L 1072.40 298.30 L 1070.80 295.90 L 1067.80 292.30 L 1068.00 291.10 Z" fill="#ffb09d" fill-rule="evenodd" group-id="1" node-id="349" stroke="none" target-height="23.600006" target-width="11.299927" target-x="1067.8" target-y="290.8"></path><path d="M 1255.70 332.00 L 1252.60 333.10 L 1250.40 334.50 L 1250.00 335.60 L 1250.60 336.30 L 1251.40 336.40 L 1254.80 334.50 L 1257.70 333.80 L 1259.30 333.80 L 1263.50 334.70 L 1264.20 334.10 L 1264.00 332.90 L 1261.50 331.90 L 1259.50 331.60 L 1255.70 332.00 Z" fill="#ed8267" fill-rule="evenodd" group-id="1" node-id="351" stroke="none" target-height="4.799988" target-width="14.199951" target-x="1250" target-y="331.6"></path><path d="M 1074.40 304.40 L 1076.60 306.90 L 1077.80 309.20 L 1077.60 310.30 L 1076.80 310.70 L 1076.00 310.40 L 1074.00 307.10 L 1071.70 305.00 L 1070.30 304.20 L 1066.20 302.90 L 1066.00 302.10 L 1066.70 301.20 L 1069.40 301.50 L 1071.30 302.20 L 1074.40 304.40 Z" fill="#ffb09d" fill-rule="evenodd" group-id="1" node-id="353" stroke="none" target-height="9.5" target-width="11.800049" target-x="1066" target-y="301.2"></path><path d="M 1187.00 351.50 L 1126.00 357.50 L 1126.40 360.40 L 1127.80 364.60 L 1129.20 367.00 L 1131.10 369.20 L 1133.60 371.40 L 1138.00 373.60 L 1140.80 374.40 L 1143.90 374.90 L 1147.20 375.00 L 1151.00 374.60 L 1158.60 372.90 L 1162.60 371.50 L 1168.30 369.10 L 1173.70 366.10 L 1177.00 363.90 L 1182.40 359.20 L 1184.60 356.50 L 1186.10 354.00 L 1187.00 351.50 Z" fill="#ffb09d" fill-rule="nonzero" group-id="1" node-id="355" stroke="none" target-height="23.5" target-width="61" target-x="1126" target-y="351.5"></path><path d="M 1132.00 369.60 L 1136.50 366.70 L 1139.60 365.20 L 1144.50 363.40 L 1150.40 362.00 L 1154.60 361.30 L 1163.70 360.80 L 1168.50 361.00 L 1178.60 362.70 L 1171.00 367.10 L 1166.40 369.30 L 1161.40 371.20 L 1156.10 372.80 L 1150.80 373.90 L 1147.30 374.20 L 1140.70 373.70 L 1137.50 372.90 L 1134.70 371.50 L 1132.00 369.60 Z" fill="#fb7b5c" fill-rule="nonzero" group-id="1" node-id="357" stroke="none" target-height="13.400024" target-width="46.599976" target-x="1132" target-y="360.8"></path><path d="M 1128.40 357.70 L 1131.40 358.80 L 1138.40 359.60 L 1149.60 359.30 L 1162.50 357.60 L 1169.00 356.20 L 1175.50 354.50 L 1181.40 352.30 L 1128.40 357.70 Z" fill="#ffffff" fill-rule="nonzero" group-id="1" node-id="359" stroke="none" target-height="7.3000183" target-width="53" target-x="1128.4" target-y="352.3"></path><path d="M 951.30 799.40 L 963.50 796.70 L 975.70 793.60 L 987.90 790.00 L 1000.10 786.10 L 1016.10 780.30 L 1032.00 774.00 L 1047.70 767.10 L 1063.10 759.80 L 1078.20 752.20 L 1107.40 736.00 L 1121.30 727.70 L 1147.80 710.80 L 1171.70 694.20 L 1188.40 681.80 L 1202.80 670.60 L 1216.20 659.60 L 1227.00 650.30 L 1237.70 649.50 L 1248.00 649.20 L 1257.80 649.30 L 1276.80 650.70 L 1294.10 653.30 L 1309.20 656.80 L 1316.40 659.00 L 1328.30 663.30 L 1322.30 674.80 L 1316.10 685.60 L 1309.70 695.90 L 1303.20 705.60 L 1296.50 714.70 L 1289.30 723.80 L 1281.90 732.30 L 1274.50 740.40 L 1266.90 747.90 L 1259.20 755.00 L 1249.10 763.60 L 1238.90 771.60 L 1228.60 778.90 L 1218.10 785.60 L 1207.30 791.90 L 1196.50 797.60 L 1185.70 802.90 L 1174.90 807.60 L 1152.80 815.90 L 1131.10 822.40 L 1116.50 826.00 L 1102.30 829.00 L 1088.50 831.40 L 1074.60 833.30 L 1048.70 835.70 L 1024.20 836.70 L 997.40 836.40 L 984.00 835.80 L 937.00 832.00 L 919.70 830.00 L 900.80 826.80 L 882.50 822.60 L 871.60 819.10 L 862.70 815.10 L 859.30 812.90 L 856.80 810.70 L 855.20 808.80 L 854.20 806.90 L 853.80 805.00 L 853.80 803.00 L 854.50 800.80 L 855.50 798.90 L 856.90 797.30 L 858.60 796.00 L 861.30 794.70 L 864.40 793.80 L 868.10 793.20 L 876.00 792.90 L 880.20 793.30 L 892.80 795.30 L 903.60 798.20 L 899.00 791.90 L 896.10 785.70 L 895.00 782.20 L 894.40 778.50 L 894.40 774.60 L 894.70 773.00 L 895.40 772.20 L 896.20 771.90 L 898.50 772.60 L 902.90 775.90 L 919.00 791.70 L 922.20 794.60 L 926.70 797.90 L 929.30 798.80 L 951.30 799.40 Z" fill="#fddcd5" fill-rule="nonzero" group-id="1" node-id="361" stroke="none" target-height="187.5" target-width="474.50006" target-x="853.8" target-y="649.2"></path><path d="M 1049.20 835.30 L 1065.30 834.30 L 1080.60 832.70 L 1095.30 830.60 L 1109.30 828.00 L 1123.40 824.80 L 1136.80 821.20 L 1149.60 817.30 L 1161.80 812.90 L 1173.90 808.10 L 1185.50 802.90 L 1196.50 797.60 L 1206.90 791.90 L 1217.20 785.80 L 1227.00 779.60 L 1236.20 773.30 L 1244.80 766.80 L 1253.40 760.00 L 1268.80 746.40 L 1275.70 739.60 L 1284.70 730.10 L 1292.70 720.90 L 1299.90 712.00 L 1306.60 702.70 L 1312.40 694.00 L 1317.40 685.90 L 1322.00 677.50 L 1325.60 669.90 L 1328.50 663.20 L 1316.40 658.90 L 1312.30 668.40 L 1307.80 677.50 L 1303.10 686.20 L 1298.00 694.60 L 1292.70 702.70 L 1285.60 712.50 L 1278.10 721.90 L 1270.20 730.80 L 1262.10 739.20 L 1253.50 747.30 L 1244.80 754.90 L 1235.80 762.10 L 1226.70 768.90 L 1217.20 775.40 L 1198.10 787.20 L 1188.50 792.50 L 1175.30 799.10 L 1162.40 805.10 L 1149.50 810.40 L 1136.50 815.20 L 1124.00 819.50 L 1112.00 823.10 L 1088.40 829.10 L 1067.20 833.10 L 1049.20 835.30 Z" fill="url(#paint9_linear_54_382)" fill-rule="nonzero" group-id="1" node-id="363" stroke="none" target-height="176.39996" target-width="279.30005" target-x="1049.2" target-y="658.9"></path><path d="M 1068.70 988.30 L 1071.10 1049.30 L 942.00 1052.90 L 1068.70 988.30 Z" fill="#0b1f6d" fill-rule="nonzero" group-id="1" node-id="365" stroke="none" target-height="64.60004" target-width="129.09998" target-x="942" target-y="988.3"></path><path d="M 1587.30 1484.00 L 1587.00 1485.60 L 1586.00 1487.30 L 1584.20 1489.10 L 1581.20 1491.10 L 1576.70 1493.30 L 1565.00 1497.40 L 1546.50 1501.90 L 1517.40 1507.10 L 1498.70 1509.70 L 1458.80 1514.30 L 1435.30 1516.50 L 1399.20 1519.40 L 1358.50 1522.10 L 1316.30 1524.40 L 1270.40 1526.40 L 1223.20 1527.90 L 1172.90 1529.10 L 1121.80 1529.80 L 1068.40 1530.00 L 1014.90 1529.80 L 963.80 1529.10 L 913.50 1527.90 L 866.40 1526.40 L 820.40 1524.40 L 778.20 1522.10 L 737.50 1519.40 L 701.40 1516.50 L 677.90 1514.30 L 638.10 1509.70 L 619.30 1507.10 L 590.20 1501.90 L 571.70 1497.40 L 560.00 1493.30 L 555.50 1491.10 L 552.50 1489.10 L 550.70 1487.30 L 549.70 1485.60 L 549.40 1484.00 L 549.70 1482.40 L 550.70 1480.80 L 552.50 1479.00 L 555.50 1477.00 L 560.00 1474.80 L 571.70 1470.70 L 590.20 1466.10 L 619.30 1461.00 L 638.10 1458.30 L 677.90 1453.70 L 701.40 1451.50 L 737.50 1448.60 L 778.20 1445.90 L 820.40 1443.60 L 866.40 1441.70 L 913.50 1440.10 L 963.80 1439.00 L 1014.90 1438.30 L 1068.40 1438.00 L 1121.80 1438.30 L 1172.90 1439.00 L 1223.20 1440.10 L 1270.40 1441.70 L 1316.30 1443.60 L 1358.50 1445.90 L 1399.20 1448.60 L 1435.30 1451.50 L 1458.80 1453.70 L 1498.70 1458.30 L 1517.40 1461.00 L 1546.50 1466.10 L 1565.00 1470.70 L 1576.70 1474.80 L 1581.20 1477.00 L 1584.20 1479.00 L 1586.00 1480.80 L 1587.00 1482.40 L 1587.30 1484.00 Z" fill="#d10011" fill-opacity="0.2" fill-rule="nonzero" group-id="1,7" node-id="369" stroke="none" target-height="92" target-width="1037.9" target-x="549.4" target-y="1438"></path></g></svg>