<?xml version="1.0" standalone="no"?><!DOCTYPE svg PUBLIC "-//W3C//DTD SVG 1.1//EN" "http://www.w3.org/Graphics/SVG/1.1/DTD/svg11.dtd"><svg t="1740824443482" class="icon" viewBox="0 0 1024 1024" version="1.1" xmlns="http://www.w3.org/2000/svg" p-id="7284" xmlns:xlink="http://www.w3.org/1999/xlink" width="200" height="200"><path d="M645.12 828.416h-1.024c-21.504-1.024-38.912-15.36-43.008-35.84L517.12 409.6l-71.68 260.096c-5.12 20.48-23.552 33.792-44.032 33.792s-38.912-14.336-44.032-33.792L297.984 450.56l-26.624 73.728c-6.144 18.432-23.552 30.72-43.008 30.72H81.92c-25.6 0-46.08-20.48-46.08-46.08s20.48-46.08 46.08-46.08h113.664l65.536-183.296c7.168-19.456 23.552-30.72 45.056-30.72 20.48 1.024 37.888 14.336 43.008 33.792L401.408 481.28l75.776-276.48c5.12-20.48 23.552-31.744 46.08-33.792 21.504 1.024 38.912 15.36 44.032 35.84l84.992 388.096 63.488-220.16c5.12-18.432 20.48-30.72 39.936-32.768 18.432-2.048 36.864 7.168 45.056 23.552l52.224 97.28h97.28c25.6 0 46.08 20.48 46.08 46.08s-20.48 46.08-46.08 46.08H824.32c-17.408 0-32.768-9.216-40.96-24.576l-11.264-21.504-82.944 285.696c-5.12 20.48-23.552 33.792-44.032 33.792z" fill="#EFD152" p-id="7285"></path><path d="M906.24 585.728V757.76c0 75.776-62.464 138.24-138.24 138.24H256c-75.776 0-138.24-62.464-138.24-138.24V585.728h-92.16V757.76c0 126.976 103.424 230.4 230.4 230.4h512c126.976 0 230.4-103.424 230.4-230.4V585.728h-92.16zM117.76 417.792V245.76c0-75.776 62.464-138.24 138.24-138.24h512c75.776 0 138.24 62.464 138.24 138.24v172.032h92.16V245.76C998.4 118.784 894.976 15.36 768 15.36H256C129.024 15.36 25.6 118.784 25.6 245.76v172.032h92.16z" fill="#009F72" p-id="7286"></path></svg>