<?xml version="1.0" standalone="no"?><!DOCTYPE svg PUBLIC "-//W3C//DTD SVG 1.1//EN" "http://www.w3.org/Graphics/SVG/1.1/DTD/svg11.dtd"><svg t="1740824310087" class="icon" viewBox="0 0 1024 1024" version="1.1" xmlns="http://www.w3.org/2000/svg" p-id="1291" id="mx_n_1740824310087" xmlns:xlink="http://www.w3.org/1999/xlink" width="200" height="200"><path d="M961.21303 390.305254a517.442634 517.442634 0 0 0-71.407084-137.984702 30.011673 30.011673 0 0 0-53.12411 8.624044 337.372597 337.372597 0 0 1-62.438078 116.942035 10.003891 10.003891 0 0 1-17.938011-5.519388C750.096435 278.192683 705.596368 34.649684 390.646285 0.153508a30.011673 30.011673 0 0 0-31.39152 39.670602c23.802361 68.992351 42.775258 202.837513-65.887695 284.593449a10.693814 10.693814 0 0 1-14.143432-2.069771A225.94995 225.94995 0 0 0 136.409471 236.107349a30.356635 30.356635 0 0 0-34.496176 36.910908 337.372597 337.372597 0 0 1-25.52717 206.977054C11.188353 639.02268-64.358271 1024 536.220146 1024s436.721583-586.434985 424.992884-633.694746zM260.250741 820.472564a48.639608 48.639608 0 0 1-34.496175 12.763585 47.259761 47.259761 0 0 1-34.496176-15.178317c-80.031127-85.550516-45.18999-244.922847-41.050449-262.860859a47.259761 47.259761 0 0 1 57.263652-34.496175 45.879914 45.879914 0 0 1 29.666711 21.387629 45.18999 45.18999 0 0 1 5.864349 34.496175c-7.589159 32.771367-20.352744 134.880047 17.938012 175.930496a48.294646 48.294646 0 0 1-2.069771 68.992351z m0 0" fill="#d81e06" p-id="1292"></path><path d="M951.209139 360.638543a698.892518 698.892518 0 0 0-61.403193-107.628068 30.011673 30.011673 0 0 0-53.12411 8.624044 337.372597 337.372597 0 0 1-62.438078 116.942035 10.003891 10.003891 0 0 1-17.938011-5.519388C750.096435 278.882607 705.596368 35.339607 390.646285 0.843431a30.011673 30.011673 0 0 0-31.39152 39.670602c23.802361 68.992351 42.775258 202.837513-65.887695 284.593449a10.693814 10.693814 0 0 1-14.143432-2.06977A225.94995 225.94995 0 0 0 136.409471 236.797273a30.356635 30.356635 0 0 0-34.496176 36.910908 337.372597 337.372597 0 0 1-25.52717 206.977053c-56.91869 137.984702-121.7715 448.450283 262.170935 526.756602a681.299468 681.299468 0 0 0 612.652079-646.803293z m-689.923512 459.834021a48.639608 48.639608 0 0 1-34.496176 12.763585 47.259761 47.259761 0 0 1-34.496176-15.178317c-80.031127-85.550516-45.18999-244.922847-41.050449-262.860859a47.259761 47.259761 0 0 1 57.263652-34.496175 45.879914 45.879914 0 0 1 29.666711 21.387629 45.18999 45.18999 0 0 1 5.86435 34.496175c-7.589159 32.771367-20.352744 134.880047 17.938011 175.930496a48.294646 48.294646 0 0 1-2.06977 68.992351z m0 0" fill="#d81e06" p-id="1293"></path><path d="M739.40262 274.398104C708.011101 165.390189 622.805547 26.370601 390.646285 0.843431a30.011673 30.011673 0 0 0-31.39152 39.670602c23.457399 68.992351 42.775258 202.837513-66.232657 284.593449a10.348853 10.348853 0 0 1-13.79847-2.06977A225.94995 225.94995 0 0 0 136.409471 236.797273a30.356635 30.356635 0 0 0-34.496176 36.910908 337.372597 337.372597 0 0 1-25.52717 206.977053 494.330196 494.330196 0 0 0-34.496175 287.008181h42.430296a663.361457 663.361457 0 0 0 74.166777-4.139541 389.806784 389.806784 0 0 1-7.244197-208.701862 47.639219 47.639219 0 0 1 92.794713 21.73259c-7.244197 31.046558-18.972897 124.531194 12.418623 169.031261a682.679315 682.679315 0 0 0 482.946458-471.562721z m0 0" fill="#d81e06" p-id="1294"></path><path d="M390.646285 0.843431a30.011673 30.011673 0 0 0-31.39152 39.670602c23.457399 68.992351 42.775258 202.837513-66.232657 284.593449a10.348853 10.348853 0 0 1-13.79847-2.06977A225.94995 225.94995 0 0 0 136.409471 236.797273a30.356635 30.356635 0 0 0-34.496176 36.910908 337.372597 337.372597 0 0 1-25.52717 206.977053q-6.209312 15.178317-11.383738 30.011673a681.64443 681.64443 0 0 0 497.779814-458.799136 465.698371 465.698371 0 0 0-172.480878-50.019454z m0 0" fill="#d81e06" p-id="1295"></path></svg>